<svg width="44" height="15" viewBox="0 0 44 15" fill="none" xmlns="http://www.w3.org/2000/svg">
<path d="M5.04178 14.6741C4.08705 14.6741 3.23694 14.5106 2.49146 14.1837C1.74599 13.8568 1.15745 13.412 0.725859 12.8497C0.294267 12.2742 0.0523137 11.6334 0 10.9271H3.31541C3.35465 11.3064 3.53121 11.6137 3.84509 11.8492C4.15898 12.0846 4.54479 12.2023 5.00254 12.2023C5.42106 12.2023 5.74147 12.1238 5.96381 11.9669C6.19923 11.7968 6.31693 11.5811 6.31693 11.3195C6.31693 11.0056 6.15345 10.7767 5.82649 10.6329C5.49953 10.4759 4.96985 10.3059 4.23745 10.1228C3.45273 9.93968 2.7988 9.75005 2.27567 9.55387C1.75253 9.34462 1.30132 9.02419 0.922037 8.5926C0.542759 8.14793 0.353121 7.55286 0.353121 6.80738C0.353121 6.17961 0.523141 5.61069 0.863184 5.10063C1.2163 4.57749 1.72637 4.16552 2.39337 3.86471C3.07345 3.5639 3.87778 3.4135 4.80636 3.4135C6.17961 3.4135 7.25859 3.75355 8.0433 4.43362C8.84109 5.1137 9.29884 6.01612 9.41655 7.14088H6.31693C6.26462 6.7616 6.09459 6.4608 5.80687 6.23846C5.53222 6.01612 5.16603 5.90496 4.70827 5.90496C4.31592 5.90496 4.01511 5.98343 3.80586 6.14037C3.5966 6.28424 3.49197 6.48695 3.49197 6.74853C3.49197 7.06241 3.65546 7.29783 3.98242 7.45477C4.32246 7.61171 4.8456 7.76865 5.55184 7.92559C6.36271 8.13485 7.02318 8.34411 7.53324 8.55336C8.0433 8.74954 8.48797 9.0765 8.86725 9.53426C9.25961 9.97892 9.46233 10.5805 9.4754 11.3391C9.4754 11.9799 9.2923 12.5554 8.9261 13.0655C8.57298 13.5625 8.05638 13.9548 7.3763 14.2425C6.70929 14.5302 5.93112 14.6741 5.04178 14.6741ZM25.4956 3.45273C26.8558 3.45273 27.9348 3.86471 28.7325 4.68866C29.5434 5.5126 29.9488 6.65698 29.9488 8.12177V14.5172H26.6138V8.57298C26.6138 7.86674 26.4242 7.32399 26.0449 6.94471C25.6787 6.55235 25.1687 6.35617 24.5147 6.35617C23.8609 6.35617 23.3442 6.55235 22.9649 6.94471C22.5987 7.32399 22.4156 7.86674 22.4156 8.57298V14.5172H19.0806V8.57298C19.0806 7.86674 18.891 7.32399 18.5116 6.94471C18.1455 6.55235 17.6354 6.35617 16.9815 6.35617C16.3276 6.35617 15.811 6.55235 15.4316 6.94471C15.0655 7.32399 14.8823 7.86674 14.8823 8.57298V14.5172H11.5278V3.57044H14.8823V4.94369C15.2224 4.48593 15.6671 4.12628 16.2164 3.86471C16.7657 3.59006 17.387 3.45273 18.0801 3.45273C18.904 3.45273 19.6364 3.62929 20.2772 3.98242C20.9312 4.33554 21.4413 4.83906 21.8074 5.49299C22.1868 4.89138 22.7034 4.40093 23.3572 4.02165C24.0112 3.64237 24.724 3.45273 25.4956 3.45273ZM39.024 3.45273C40.2796 3.45273 41.2865 3.87125 42.0452 4.70827C42.8037 5.53222 43.183 6.67005 43.183 8.12177V14.5172H39.848V8.57298C39.848 7.84058 39.6582 7.27166 39.2791 6.86623C38.8997 6.4608 38.3897 6.25808 37.7489 6.25808C37.1079 6.25808 36.5979 6.4608 36.2187 6.86623C35.8394 7.27166 35.6498 7.84058 35.6498 8.57298V14.5172H32.2951V0H35.6498V5.04178C35.9897 4.55788 36.4541 4.17205 37.0426 3.88433C37.6312 3.5966 38.2916 3.45273 39.024 3.45273Z" fill="white"/>
</svg>
