<svg width="24" height="24" viewBox="0 0 24 24" fill="none" xmlns="http://www.w3.org/2000/svg">
<path fill-rule="evenodd" clip-rule="evenodd" d="M12 2.39999C10.727 2.39999 9.50606 2.90571 8.60588 3.80588C7.70571 4.70606 7.2 5.92695 7.2 7.19999V8.39999H6C5.70458 8.39997 5.41953 8.50893 5.19945 8.70599C4.97936 8.90305 4.83969 9.17437 4.8072 9.46799L3.6072 20.268C3.58864 20.4357 3.60565 20.6054 3.65713 20.7661C3.70861 20.9268 3.7934 21.0748 3.90596 21.2005C4.01852 21.3262 4.15633 21.4268 4.31038 21.4956C4.46443 21.5644 4.63127 21.6 4.8 21.6H19.2C19.3687 21.6 19.5356 21.5644 19.6896 21.4956C19.8437 21.4268 19.9815 21.3262 20.094 21.2005C20.2066 21.0748 20.2914 20.9268 20.3429 20.7661C20.3943 20.6054 20.4114 20.4357 20.3928 20.268L19.1928 9.46799C19.1603 9.17437 19.0206 8.90305 18.8005 8.70599C18.5805 8.50893 18.2954 8.39997 18 8.39999H16.8V7.19999C16.8 5.92695 16.2943 4.70606 15.3941 3.80588C14.4939 2.90571 13.273 2.39999 12 2.39999ZM14.4 8.39999V7.19999C14.4 6.56347 14.1471 5.95302 13.6971 5.50294C13.247 5.05285 12.6365 4.79999 12 4.79999C11.3635 4.79999 10.753 5.05285 10.3029 5.50294C9.85285 5.95302 9.6 6.56347 9.6 7.19999V8.39999H14.4ZM7.2 12C7.2 11.6817 7.32642 11.3765 7.55147 11.1515C7.77651 10.9264 8.08174 10.8 8.4 10.8C8.71826 10.8 9.02348 10.9264 9.24852 11.1515C9.47357 11.3765 9.6 11.6817 9.6 12C9.6 12.3183 9.47357 12.6235 9.24852 12.8485C9.02348 13.0736 8.71826 13.2 8.4 13.2C8.08174 13.2 7.77651 13.0736 7.55147 12.8485C7.32642 12.6235 7.2 12.3183 7.2 12ZM15.6 10.8C15.2817 10.8 14.9765 10.9264 14.7515 11.1515C14.5264 11.3765 14.4 11.6817 14.4 12C14.4 12.3183 14.5264 12.6235 14.7515 12.8485C14.9765 13.0736 15.2817 13.2 15.6 13.2C15.9183 13.2 16.2235 13.0736 16.4485 12.8485C16.6736 12.6235 16.8 12.3183 16.8 12C16.8 11.6817 16.6736 11.3765 16.4485 11.1515C16.2235 10.9264 15.9183 10.8 15.6 10.8Z" fill="white"/>
</svg>
