<svg width="34" height="34" viewBox="0 0 34 34" fill="none" xmlns="http://www.w3.org/2000/svg">
<path d="M6.11716 8.95047C5.52518 9.54245 5.05559 10.2452 4.73521 11.0187C4.41484 11.7921 4.24994 12.6211 4.24994 13.4583C4.24994 14.2955 4.41484 15.1245 4.73521 15.8979C5.05559 16.6714 5.52518 17.3742 6.11716 17.9661L17 28.849L27.8828 17.9661C29.0784 16.7706 29.75 15.1491 29.75 13.4583C29.75 11.7675 29.0784 10.146 27.8828 8.95047C26.6873 7.75492 25.0658 7.08327 23.375 7.08327C21.6842 7.08327 20.0627 7.75492 18.8672 8.95047L17 10.8176L15.1328 8.95047C14.5409 8.35849 13.8381 7.88891 13.0646 7.56853C12.2912 7.24815 11.4622 7.08325 10.625 7.08325C9.78781 7.08325 8.95882 7.24815 8.18537 7.56853C7.41191 7.88891 6.70913 8.35849 6.11716 8.95047V8.95047Z" stroke="black" stroke-width="2" stroke-linecap="round" stroke-linejoin="round"/>
</svg>
