<svg width="34" height="34" viewBox="0 0 34 34" fill="none" xmlns="http://www.w3.org/2000/svg">
<path fill-rule="evenodd" clip-rule="evenodd" d="M5.3924 8.79251C6.66759 7.51771 8.39688 6.80156 10.2 6.80156C12.0031 6.80156 13.7324 7.51771 15.0076 8.79251L17 10.7832L18.9924 8.79251C19.6197 8.14304 20.37 7.625 21.1996 7.26862C22.0293 6.91224 22.9216 6.72466 23.8245 6.71681C24.7274 6.70896 25.6228 6.88102 26.4585 7.22293C27.2942 7.56484 28.0534 8.06976 28.6919 8.70823C29.3304 9.3467 29.8353 10.1059 30.1772 10.9416C30.5191 11.7773 30.6911 12.6727 30.6833 13.5756C30.6755 14.4785 30.4879 15.3708 30.1315 16.2005C29.7751 17.0301 29.2571 17.7804 28.6076 18.4077L17 30.017L5.3924 18.4077C4.1176 17.1325 3.40145 15.4032 3.40145 13.6001C3.40145 11.797 4.1176 10.0677 5.3924 8.79251V8.79251Z" fill="#EE001D"/>
</svg>
